<svg version="1.1" id="Layer_1" xmlns="http://www.w3.org/2000/svg" xmlns:xlink="http://www.w3.org/1999/xlink" x="0px" y="0px"
	 width="100%" viewBox="0 0 768 1024" enable-background="new 0 0 768 1024" xml:space="preserve">
<path fill="#000000" opacity="1.000000" stroke="none" 
	d="
M556.965759,135.020660 
	C560.791565,133.373047 564.840759,133.857758 568.812683,133.905258 
	C572.055176,133.944061 573.626465,132.937393 573.780151,129.363083 
	C574.253113,118.364784 574.374878,118.375504 585.193542,118.931847 
	C588.012573,119.076813 590.552979,119.048241 590.778748,115.092056 
	C591.176147,108.129845 590.421631,106.492813 586.088867,106.128471 
	C583.939636,105.947754 581.790955,105.398361 579.657776,105.471809 
	C576.267822,105.588554 574.627380,104.184135 574.742310,100.822449 
	C574.833374,98.160194 573.342957,96.880531 570.993591,96.289154 
	C567.687805,95.457024 567.400940,92.962692 568.185669,90.406929 
	C569.141479,87.294441 571.561279,88.482269 573.572205,89.187477 
	C588.919617,94.569611 604.166016,100.411850 618.362427,108.257065 
	C630.750244,115.102798 641.832092,124.247910 642.858887,140.001907 
	C643.471252,149.397049 642.135620,158.824738 640.820740,168.215805 
	C638.577637,184.236908 633.185425,199.474411 629.709778,215.189941 
	C625.844543,232.667236 635.042480,239.727005 648.722961,244.243332 
	C662.336548,248.737579 676.548218,251.580933 690.497620,255.128860 
	C704.627625,258.722717 718.759460,261.901825 731.776001,268.782654 
	C738.611023,272.395813 744.895752,276.652832 749.971069,282.521057 
	C756.404602,289.959747 758.701050,298.308075 755.796204,307.996552 
	C751.646179,321.837891 747.461426,335.676941 744.960754,349.955994 
	C744.540955,352.353027 743.798401,354.886932 740.483582,355.154785 
	C737.201172,355.419983 737.047485,352.946899 736.033325,350.854584 
	C733.864197,346.379944 733.091858,341.400940 730.463074,337.067139 
	C727.231873,331.739990 724.630005,330.353088 718.298584,331.113159 
	C710.511230,332.048065 703.852844,336.114227 696.774231,338.869476 
	C685.183105,343.381317 673.989197,348.922607 662.669800,354.121124 
	C653.464966,358.348541 644.248779,362.235077 633.890320,362.925934 
	C624.384766,363.559937 615.517334,361.634430 607.597168,356.736908 
	C597.617188,350.565704 597.468994,340.403412 599.351624,330.481018 
	C601.211609,320.677734 602.173035,310.777679 603.282104,300.922668 
	C604.007568,294.477020 602.289307,288.299713 595.392029,284.593628 
	C582.527954,277.681549 569.341614,273.799469 554.415344,274.879089 
	C540.428101,275.890808 528.003174,280.920532 515.617493,286.573456 
	C512.611694,287.945343 509.476257,289.747986 506.537170,290.425385 
	C500.040375,291.922729 499.769623,296.603058 499.385590,301.297699 
	C497.478516,324.611023 495.587250,347.928528 494.057220,371.268585 
	C493.372284,381.716919 493.036041,392.170868 491.340271,402.533569 
	C490.977081,404.752960 490.790802,407.150452 491.581055,409.442780 
	C493.361420,410.361633 495.220917,409.818390 497.004944,409.938385 
	C503.595123,410.381531 507.612335,414.216522 508.431702,420.838074 
	C508.839813,424.136200 509.305298,427.371124 511.630402,430.100739 
	C513.899658,432.764740 513.758911,435.943024 511.340027,438.256195 
	C508.253448,441.207916 507.055573,444.793854 506.076416,448.713562 
	C504.593475,454.650208 501.192352,458.887543 494.799591,459.967896 
	C492.387634,460.375519 491.455292,461.861816 491.307159,464.116241 
	C490.599884,474.879456 489.917511,485.644531 489.144257,496.403076 
	C488.893127,499.896667 489.827087,501.786560 493.772400,502.474548 
	C499.007568,503.387451 502.162048,508.097900 502.297363,513.878906 
	C502.343964,515.870483 501.842957,517.974304 503.085815,519.712158 
	C506.327209,524.244263 505.609741,528.761963 502.329468,532.569580 
	C499.164459,536.243408 499.393768,540.914062 497.635101,544.975098 
	C496.094360,548.532837 493.882050,550.469788 490.380432,550.905640 
	C486.845886,551.345642 485.579895,552.821960 485.835175,556.481812 
	C486.649597,568.156067 483.962280,579.647156 483.639648,591.260315 
	C483.288086,603.914001 483.741638,616.593933 483.240356,629.238525 
	C482.490906,648.144653 481.197754,667.029053 480.178101,685.924927 
	C480.025635,688.750610 480.121521,691.588989 480.070221,694.420898 
	C479.778137,710.539673 479.081207,726.630737 477.628052,742.698914 
	C477.060822,748.971130 477.945007,755.374084 477.385193,761.647644 
	C475.480652,782.990112 475.623199,804.418457 474.413727,825.789917 
	C473.869843,835.400513 473.331421,845.045288 473.184784,854.672119 
	C472.812347,879.125854 471.098297,903.525513 470.763184,927.989197 
	C470.518311,945.863831 468.572388,963.723877 467.117279,981.568604 
	C466.577789,988.184937 465.231232,994.744202 462.395172,1000.838989 
	C461.149292,1003.516357 459.942017,1006.396484 456.192413,1006.541321 
	C452.488434,1006.684387 450.438049,1004.398193 448.587372,1001.716614 
	C447.317291,999.876221 446.793365,997.760498 446.610931,995.597656 
	C445.684570,984.613281 444.527863,973.820312 445.800171,962.563599 
	C447.387360,948.520752 445.916870,934.150940 446.099823,919.926575 
	C446.400970,896.512268 448.431396,873.167480 448.937805,849.742920 
	C449.300079,832.982971 450.524292,816.224487 450.932037,799.435120 
	C451.436127,778.679504 452.840210,757.946106 453.383087,737.190735 
	C453.504150,732.562927 453.755707,727.921936 454.126007,723.349243 
	C456.130951,698.591858 455.256531,673.792969 455.762543,649.016174 
	C455.978760,638.430115 455.088776,627.900635 455.124664,617.363464 
	C455.166290,605.133484 452.660278,592.984192 454.498993,580.695740 
	C455.843384,571.710815 456.494995,562.621887 457.439514,553.577698 
	C457.745758,550.644958 458.214355,547.692688 456.964020,544.553650 
	C452.692657,545.113220 448.953156,547.223267 444.999664,547.905273 
	C430.638000,550.382874 417.473999,556.536987 403.654602,560.633911 
	C399.311768,561.921387 394.878571,562.839600 390.389984,561.339783 
	C387.057861,560.226257 383.995911,562.551880 380.543976,561.693298 
	C375.007721,560.316406 370.020050,557.634705 364.698975,555.771484 
	C359.697845,554.020203 354.832306,551.680847 350.243866,549.019653 
	C346.971252,547.121521 345.365845,547.895020 343.342224,550.689148 
	C336.137909,560.636230 329.633301,571.158691 320.882568,579.887207 
	C313.110321,587.639709 305.154205,595.270691 295.503418,600.707825 
	C292.685669,602.295471 292.067169,604.271912 292.036530,607.171326 
	C291.933197,616.943726 293.426086,626.975281 288.889069,636.195984 
	C282.689087,648.796387 275.258972,660.618225 264.280579,669.669312 
	C261.897949,671.633667 261.110016,673.496704 261.044220,676.355774 
	C260.837799,685.325928 261.992523,694.344849 260.174957,703.265991 
	C260.047333,703.892395 260.225494,704.588135 260.298828,705.247437 
	C261.957275,720.156311 261.483307,735.025269 260.295807,749.967590 
	C259.520691,759.720398 258.417847,769.499268 258.880127,779.355713 
	C259.167542,785.483337 259.073730,791.679138 255.651810,797.237610 
	C255.178497,798.006470 255.231979,799.187317 255.268173,800.169128 
	C255.955826,818.823364 253.635696,837.415894 254.156082,856.067871 
	C254.485855,867.887756 252.498901,879.660339 252.510834,891.384644 
	C252.529968,910.166870 247.206604,928.443542 248.283173,947.230408 
	C248.348434,948.369324 248.090927,949.547791 247.851013,950.679749 
	C246.375122,957.642273 246.881668,959.121094 253.588882,959.545593 
	C266.212189,960.344482 278.484558,963.567627 291.051025,964.431274 
	C298.065582,964.913391 304.614319,967.330872 311.481842,968.387939 
	C316.183258,969.111633 319.631561,972.725281 323.224518,975.652710 
	C328.110748,979.633789 333.577087,982.968079 337.668610,987.851135 
	C342.225647,993.289917 340.226715,998.634399 333.192017,999.782715 
	C330.142609,1000.280457 327.214111,1000.313904 323.955566,999.209778 
	C314.600800,996.039795 305.518494,991.805786 295.474152,990.871521 
	C293.782715,990.714233 292.225403,990.800842 290.570099,990.980835 
	C280.784058,992.045349 271.098480,990.824585 261.369659,989.813232 
	C254.325577,989.080994 247.342850,987.926392 240.256241,987.393433 
	C225.997589,986.321167 226.494812,981.136963 227.357773,969.739380 
	C228.051239,960.580566 229.649963,951.431763 229.586044,942.287354 
	C229.478790,926.942627 231.452682,911.793091 232.386673,896.551208 
	C233.105774,884.816040 233.926880,873.064453 234.723038,861.345703 
	C235.882111,844.285645 234.665344,827.094299 237.638290,810.139832 
	C238.703094,804.067322 236.953339,798.407959 234.571121,792.794006 
	C228.859146,779.333130 226.818161,765.248718 226.837402,750.598145 
	C226.849182,741.629517 226.022964,732.584290 226.472107,723.628723 
	C226.829407,716.504089 225.405823,710.012207 223.194855,703.428223 
	C221.758820,699.151978 221.429764,694.624878 221.825882,690.094666 
	C222.036087,687.690918 221.322098,685.791809 218.579346,686.580750 
	C212.978897,688.191650 207.317001,687.300110 201.703705,687.305054 
	C197.567825,687.308655 195.819061,689.000671 194.830811,692.843201 
	C192.749619,700.935242 192.302536,709.201294 192.313171,717.418762 
	C192.338577,737.067383 190.593613,756.620117 188.669113,776.096619 
	C186.898132,794.019592 183.668945,811.806396 179.824112,829.494446 
	C177.094208,842.053223 174.789673,854.830750 174.970428,867.962402 
	C175.171478,882.569031 173.060898,897.075500 170.709579,911.516846 
	C169.752747,917.393555 169.312317,923.417969 169.317596,929.374573 
	C169.329147,942.390808 166.135208,955.060791 165.566269,967.998901 
	C165.434906,970.986267 165.125549,973.965454 164.932617,976.950623 
	C164.483978,983.891968 161.011383,986.945068 154.097198,986.999390 
	C145.301834,987.068481 136.428314,986.797668 127.743034,987.895813 
	C121.945435,988.628784 116.305672,990.778625 110.416336,991.866516 
	C104.577255,992.945129 98.869514,992.188416 93.138199,992.921753 
	C88.565750,993.506775 83.848610,992.847107 79.213982,993.089539 
	C73.806252,993.372498 68.683022,992.261536 63.529877,990.879639 
	C59.999229,989.932739 58.343967,987.745178 57.649830,984.280396 
	C56.931267,980.693481 58.053143,977.829102 60.952061,976.060608 
	C78.109886,965.593018 96.101959,959.188171 116.850616,962.523315 
	C125.061722,963.843140 133.009079,966.172302 141.210098,967.405518 
	C145.034744,967.980652 146.463715,967.241211 147.052826,963.129883 
	C148.975357,949.712830 149.739990,936.216980 150.806442,922.729553 
	C151.876831,909.192749 153.661728,895.713135 155.053940,882.200256 
	C155.256699,880.232300 155.031067,878.218323 154.979828,876.226257 
	C154.618790,862.194031 157.976913,848.635315 160.624619,835.036682 
	C161.979004,828.080444 162.460892,820.923584 165.034027,814.138733 
	C165.995193,811.604248 164.384460,808.394043 164.022842,805.484985 
	C161.532791,785.452942 156.693695,765.560181 157.939301,745.294312 
	C158.667969,733.438843 157.780304,721.744080 157.634354,709.980713 
	C157.511612,700.086853 157.202652,690.190979 156.043518,680.336243 
	C155.749649,677.837830 154.566620,676.546753 152.588776,675.330750 
	C145.922928,671.232666 138.859894,667.837219 132.027634,664.062256 
	C124.990059,660.173828 119.140709,655.248901 114.005814,649.341248 
	C105.292221,639.316284 97.054520,628.868103 88.127083,619.042725 
	C83.574646,614.032349 78.117043,609.787720 72.776367,605.566711 
	C67.677048,601.536499 67.136505,599.544556 70.086945,593.771118 
	C78.383499,577.536255 89.764244,563.627014 103.674477,552.139038 
	C113.875015,543.714905 123.406693,534.312439 135.226257,527.874939 
	C142.099075,524.131714 149.138184,521.411560 157.006973,522.081177 
	C164.351257,522.706116 171.584976,521.773926 178.846771,521.232239 
	C183.406982,520.892151 187.788803,521.873779 192.181793,522.581055 
	C197.349030,523.412903 198.727661,522.811157 199.712326,517.580505 
	C200.847610,511.549561 201.600937,505.467316 203.644333,499.604126 
	C206.533493,491.314178 207.458191,491.084137 216.117172,491.557709 
	C226.664902,492.134552 237.268219,491.694824 248.048782,490.939575 
	C242.086426,486.222412 235.376450,483.234039 228.765671,480.054260 
	C219.619934,475.655182 210.403549,471.382904 201.430008,466.653015 
	C195.368729,463.458130 194.858551,460.534149 198.589020,454.997009 
	C213.354889,433.080017 230.612015,413.476257 251.315201,396.876801 
	C256.458923,392.752625 261.830292,388.819122 267.229919,383.965485 
	C259.928741,383.357941 253.125824,385.567627 246.473022,383.346283 
	C235.890549,379.812897 226.119812,375.090424 219.856262,365.273193 
	C214.465286,356.823608 214.356567,347.434814 215.102905,337.854279 
	C215.691940,330.293091 218.575317,323.077789 218.745193,315.545502 
	C215.915390,314.257874 214.169067,315.825226 212.386414,316.905579 
	C198.717880,325.189117 184.413132,332.176422 169.603088,338.164490 
	C167.870987,338.864838 166.162460,339.343018 164.311569,339.463562 
	C161.911057,339.619934 158.906281,340.949341 157.783508,337.774353 
	C156.674225,334.637421 157.376129,331.519867 160.389069,329.354767 
	C165.921402,325.379150 171.366730,321.279694 176.958359,317.390015 
	C189.517914,308.653229 202.100998,299.948456 214.773865,291.377563 
	C218.119720,289.114685 219.036041,286.797821 218.002136,282.665100 
	C214.826385,269.970886 211.905472,257.191895 209.524597,244.327576 
	C208.048859,236.353882 207.277069,228.193390 207.791870,220.014557 
	C208.108246,214.988358 211.587448,211.535110 216.586960,210.886719 
	C221.172684,210.291992 225.614868,210.994202 229.847565,212.503891 
	C233.807007,213.916168 235.167801,212.050034 235.488739,208.739563 
	C236.335175,200.007996 236.990128,191.258011 237.755478,182.518341 
	C238.324661,176.018982 239.602310,169.726837 242.870590,163.942719 
	C248.264160,154.397324 260.231781,151.408539 269.433563,157.494629 
	C271.644348,158.956863 273.710602,160.666931 275.705811,162.419617 
	C279.746124,165.968903 283.183960,166.021896 287.139435,162.406586 
	C288.856201,160.837479 290.290283,158.641800 292.301941,157.783310 
	C295.739716,156.316238 299.414398,156.123276 302.416840,159.322021 
	C312.196442,169.741135 321.910065,180.195221 331.024750,191.235229 
	C335.302429,196.416519 341.190063,200.268661 347.299622,205.544891 
	C352.799805,202.362579 360.166595,197.961746 367.661713,193.791687 
	C384.787415,184.263519 401.564087,174.017181 420.416931,167.994614 
	C423.517975,167.004013 426.641602,166.497040 428.575745,169.381454 
	C430.609497,172.414474 428.435028,175.164719 426.388824,177.380493 
	C422.881409,181.178574 418.036011,183.356827 414.162933,186.468369 
	C409.216553,190.442123 404.065887,194.009018 398.721222,197.243210 
	C387.234711,204.194000 377.225403,213.407532 364.963776,219.151031 
	C364.451599,219.390945 364.169098,220.121307 363.571747,220.890961 
	C368.198334,224.334000 373.717712,225.336945 378.537537,227.806305 
	C396.345856,236.930222 413.813385,246.618805 428.015564,260.971466 
	C435.015259,268.045288 440.836670,276.142456 444.494720,285.671478 
	C446.737213,291.513123 450.282593,296.697662 451.632629,303.091644 
	C453.867981,313.678680 449.339630,326.465179 438.842651,331.640656 
	C426.217194,337.865509 414.239502,345.370300 400.806519,349.988403 
	C388.974915,354.055969 376.825348,357.282654 364.401123,357.233551 
	C357.442780,357.206085 349.680389,357.229950 343.382568,353.070343 
	C340.499756,351.166260 339.031738,352.432068 337.513550,354.179077 
	C335.045135,357.019379 333.545898,360.652100 333.448730,364.217957 
	C333.217407,372.710419 329.633514,380.274536 327.605072,388.252472 
	C326.775757,391.514343 326.352539,393.985168 329.012177,396.809296 
	C332.310303,400.311462 334.924408,404.550079 336.307617,409.218567 
	C338.127686,415.361298 342.293182,419.138855 347.594910,422.177551 
	C360.247009,429.429169 372.886658,436.700409 384.965576,444.907898 
	C389.102570,447.718872 393.979248,446.636597 397.969788,445.087708 
	C410.508820,440.221039 423.571167,438.342865 436.769409,436.799042 
	C442.711304,436.104004 447.760193,433.210175 452.522949,429.726410 
	C456.110352,427.102356 455.984558,422.975433 456.538971,419.350220 
	C457.455688,413.355621 459.837585,408.609344 465.182434,405.527710 
	C467.205444,404.361328 468.455505,402.509827 468.482239,400.234100 
	C468.591431,390.925903 470.508026,381.801270 470.839478,372.470520 
	C471.326080,358.773285 471.531555,345.013580 473.589996,331.376770 
	C474.552612,324.999786 474.232117,318.445129 474.546448,311.990509 
	C474.958344,303.532928 475.158783,294.965790 476.144318,286.635498 
	C477.916412,271.656342 478.135803,256.610474 479.448090,241.625366 
	C480.259308,232.361862 479.967651,223.023819 480.595520,213.707932 
	C482.237701,189.342819 483.647064,164.945480 484.284698,140.538406 
	C484.499420,132.318405 484.552490,123.952667 483.502533,115.651672 
	C482.226105,105.560463 482.868988,95.357651 482.978973,85.206383 
	C483.024841,80.973419 481.530243,79.340347 477.241302,79.042267 
	C470.636719,78.583260 464.042816,77.644638 457.513397,76.511803 
	C449.157684,75.062103 446.491180,70.744438 447.526642,62.053104 
	C448.461182,54.208382 450.406158,46.756035 454.033020,39.691910 
	C460.148254,27.781250 470.022034,21.330212 483.017822,19.462938 
	C487.256744,18.853884 491.402466,17.343121 495.815002,17.971127 
	C498.067535,18.291706 500.342896,18.431202 500.169617,21.510773 
	C500.016846,24.225454 498.179321,24.998560 495.736938,25.231968 
	C489.980011,25.782137 484.275787,26.268974 478.621460,27.992983 
	C464.067169,32.430611 456.243958,50.997162 455.386444,62.552914 
	C455.178101,65.361107 456.313293,67.018806 459.066345,67.550049 
	C464.436218,68.586258 469.753571,70.001083 475.291992,69.846298 
	C479.244171,69.735847 482.932129,71.495415 487.007324,71.170677 
	C489.763092,70.951088 490.758728,73.827393 490.994507,76.150681 
	C491.313690,79.295288 493.053467,79.953873 495.723145,79.858154 
	C498.220093,79.768616 500.722198,79.808617 503.221985,79.817009 
	C505.022919,79.823051 506.465942,79.427055 507.041962,77.393784 
	C508.186768,73.352570 511.520905,72.416794 515.115112,71.891174 
	C520.041260,71.170761 524.979004,70.512146 529.882812,69.660629 
	C533.971008,68.950737 536.722290,67.382011 536.250427,62.186031 
	C535.622498,55.271332 534.061707,48.746304 530.456055,42.866566 
	C528.555359,39.767063 528.881531,37.905128 531.896973,35.852657 
	C535.338989,33.509899 536.636169,35.683308 538.023438,38.126453 
	C543.166565,47.184086 545.459229,57.005749 544.947266,67.323761 
	C544.707764,72.149101 542.041504,75.809105 536.739502,76.646248 
	C531.492676,77.474693 526.761597,80.451286 521.242920,80.457680 
	C528.759827,82.923325 536.632568,82.965614 544.352478,83.821419 
	C548.489807,84.280083 552.345581,85.871597 556.578064,85.998482 
	C559.772888,86.094269 561.596130,87.996742 560.492920,91.849121 
	C559.636353,94.840408 558.723267,97.884026 558.853821,101.143799 
	C558.960999,103.822289 557.059692,104.900749 554.562805,104.921715 
	C550.934448,104.952179 547.305603,104.929527 544.187805,104.929527 
	C542.858765,106.514984 543.061096,107.721886 542.999084,108.863884 
	C542.555786,117.024353 541.324585,118.356583 533.080566,118.162971 
	C528.608704,118.057961 526.287598,119.101738 527.830688,124.084366 
	C528.164429,125.161850 528.075989,126.409286 528.001465,127.566818 
	C527.754883,131.398911 529.420837,133.098862 533.315247,132.841217 
	C536.126282,132.655258 539.021301,132.514847 541.685547,134.806808 
	C542.000366,134.997360 541.973755,134.970428 541.967285,135.435135 
	C541.961426,137.388916 541.967896,138.878021 541.961792,140.367065 
	C541.922424,149.993118 541.923584,150.012970 532.405640,151.015930 
	C530.675232,151.198257 529.205566,151.503677 528.422180,153.349930 
	C525.835510,159.446579 528.612610,164.469421 535.075989,165.288513 
	C536.716980,165.496475 538.349792,165.769058 540.065125,166.369751 
	C540.597656,172.105148 540.434448,177.447876 539.090332,182.869125 
	C538.940430,183.005844 538.637207,183.275436 538.205872,183.290588 
	C534.942017,183.309692 532.109375,183.328522 529.276978,183.312042 
	C527.591980,183.302246 526.294067,183.845871 525.993469,185.667679 
	C525.358887,189.513260 523.557617,193.230957 524.579590,197.798645 
	C527.640259,197.798645 530.614197,197.815262 533.587830,197.793777 
	C536.328491,197.773972 538.207458,198.865265 538.182617,201.813004 
	C538.146362,206.120010 538.750916,210.494003 536.983154,214.923294 
	C536.488098,215.451660 536.195496,215.744492 535.450317,216.032928 
	C530.885010,216.028549 526.772339,216.028549 523.119629,216.028549 
	C519.909119,220.644287 522.391602,225.805466 519.727783,230.137939 
	C515.175842,233.504395 513.958008,241.078583 517.729797,245.032990 
	C519.378662,239.873215 519.633240,234.921249 520.389709,229.865936 
	C524.370972,228.749588 528.041016,229.023819 531.688721,229.011826 
	C533.647095,229.005386 535.515808,229.457062 535.813416,231.734879 
	C536.352112,235.858124 536.387878,240.029724 535.710327,244.134003 
	C535.380066,246.134644 533.766907,247.210327 531.719971,247.245361 
	C529.903992,247.276459 528.085205,247.053772 526.266296,247.024628 
	C522.691895,246.967346 519.858643,247.362030 519.892639,252.270218 
	C519.917419,255.848282 518.690674,259.435028 517.603455,263.060974 
	C510.921051,262.318756 509.688416,266.415405 509.182648,271.287842 
	C509.035828,272.702118 507.773041,274.293976 509.367889,275.414734 
	C510.827545,276.440430 512.544495,275.828369 514.172852,275.371155 
	C517.061462,274.559998 517.443359,272.263763 517.377075,269.872253 
	C517.312195,267.533356 517.146545,265.224121 518.331787,262.813965 
	C521.329102,260.913635 524.231262,260.745972 527.296509,261.063019 
	C533.831421,261.738983 534.251160,261.346893 534.665833,254.823013 
	C534.760437,253.333572 534.700623,251.833939 534.700623,250.338989 
	C534.700623,246.850479 536.601868,245.184616 539.928040,244.994400 
	C541.916077,244.880737 543.913940,244.852631 545.904968,244.896133 
	C549.308655,244.970505 551.123962,246.705002 551.132263,250.174820 
	C551.140503,253.625565 551.134094,257.076324 551.134094,260.774323 
	C554.216675,261.149597 556.830139,261.380981 559.412903,261.801422 
	C563.933044,262.537323 565.885071,260.780914 566.532898,256.136475 
	C567.894531,246.374237 568.132446,246.407364 578.234375,245.962036 
	C578.400269,245.954712 578.567383,245.942871 578.732544,245.953369 
	C581.758240,246.145782 582.837952,244.637619 582.778687,241.726471 
	C582.708008,238.255508 582.468628,234.736267 583.876099,231.205154 
	C584.040344,231.040222 584.369202,230.710693 584.742004,230.671097 
	C588.063965,229.957001 590.988037,230.130386 593.997498,230.424545 
	C598.789001,230.892883 600.640015,233.147186 600.231384,237.936264 
	C600.001709,240.628113 599.608521,243.514114 600.916626,246.195953 
	C603.406555,246.464798 605.695862,246.836838 607.996948,246.936646 
	C614.488220,247.218246 614.745300,246.932602 614.800171,240.518311 
	C614.862854,233.193466 614.862854,233.193466 622.142639,230.533417 
	C620.464355,226.040390 624.960144,219.334366 616.966064,217.050079 
	C616.535950,216.927155 616.089966,215.945877 616.092590,215.366196 
	C616.115051,210.495636 614.557495,205.398514 618.416199,200.966980 
	C625.970093,200.786530 629.020630,196.328110 628.217407,187.249969 
	C617.847473,185.452393 617.493652,184.876770 618.043152,174.596222 
	C618.265564,170.435684 619.970642,168.732849 624.190002,168.708282 
	C631.687683,168.664658 631.670044,168.487167 633.546753,161.160904 
	C634.287292,158.269775 635.820618,155.082458 631.079834,154.255051 
	C623.789856,152.982788 621.380737,154.187637 620.801086,158.899063 
	C620.499023,161.354309 619.850281,163.782944 619.175110,166.171875 
	C618.437500,168.782043 616.234680,170.211075 613.871948,169.757004 
	C610.481506,169.105408 606.320862,171.151367 603.775513,167.295547 
	C603.363098,166.670731 603.305298,165.706787 603.338684,164.910294 
	C603.505249,160.934708 603.757019,156.962677 604.362793,152.818970 
	C605.703918,152.408539 606.659363,152.162064 607.618347,151.929657 
	C611.494446,150.990204 616.625183,154.041245 619.175964,150.100494 
	C621.308594,146.805695 620.879211,142.126373 620.892029,137.975937 
	C620.893066,137.645752 620.949768,137.315735 621.359192,136.909103 
	C625.814575,135.194626 630.280945,137.360046 634.640076,135.463440 
	C633.400452,129.304489 628.735779,126.227448 624.314026,122.500465 
	C621.651428,127.575500 624.246399,132.916641 620.548706,137.101440 
	C615.381958,137.131866 610.676331,137.079926 605.935974,136.560059 
	C605.872925,132.263077 605.874084,128.433502 605.808105,124.605057 
	C605.737732,120.525162 607.957642,119.169289 611.584167,120.017822 
	C614.715881,120.750587 617.719177,120.677086 621.627563,119.847710 
	C617.135742,115.825584 612.432007,113.617966 607.731201,111.140442 
	C605.936157,121.439507 605.544495,121.733032 595.531555,120.467636 
	C592.721924,120.112572 591.280029,120.963379 591.036560,124.145905 
	C590.169067,135.488495 590.074463,135.569748 578.179993,136.189407 
	C575.210449,136.344070 573.979858,137.403000 573.979431,140.349548 
	C573.978882,143.829269 574.337219,147.359512 572.971741,150.973221 
	C572.522705,151.464096 572.256348,151.735245 571.527283,152.029663 
	C566.003967,151.596634 560.611328,153.615677 555.999573,149.598175 
	C556.362183,144.435455 556.695801,139.703217 557.013916,134.983749 
	C556.998413,134.996521 556.965759,135.020660 556.965759,135.020660 
M710.371338,314.713318 
	C712.129944,317.539886 710.231934,320.954163 711.878113,324.133820 
	C716.346436,323.668884 720.829712,323.202362 725.280090,322.739288 
	C726.794800,315.471130 726.223633,314.719849 719.302429,314.884094 
	C716.152832,314.958832 713.017700,314.970337 709.951843,313.087769 
	C709.939636,311.102997 709.922424,309.118225 709.916138,307.133423 
	C709.890564,298.991760 709.887329,299.233368 701.676575,299.081146 
	C696.630188,298.987549 694.732178,300.949738 695.193665,305.833527 
	C695.421326,308.243225 695.233215,310.692200 695.233215,313.494781 
	C700.228882,313.036560 705.144714,313.090240 710.371338,314.713318 
M582.774048,262.738525 
	C585.639709,261.498566 588.636658,261.721558 591.629700,261.961456 
	C597.278992,262.414246 598.463806,261.400146 598.733582,255.835678 
	C599.074219,248.807159 599.051331,248.792877 591.939514,248.370499 
	C590.950378,248.311768 589.923645,248.236481 588.994690,247.927338 
	C585.462524,246.751831 584.513123,248.124435 583.962708,251.640564 
	C583.371216,255.420151 585.527710,259.750183 581.401611,263.412750 
	C577.809998,264.701630 574.230164,263.752686 570.641602,263.381348 
	C569.291260,263.241577 567.837646,263.216919 567.410400,264.920624 
	C567.078308,266.245209 567.684753,267.432343 569.064575,267.463867 
	C573.125366,267.556702 577.123657,269.656586 581.444641,267.980621 
	C581.632874,266.268280 581.812927,264.630249 582.774048,262.738525 
M661.786377,313.729126 
	C663.423279,313.475128 665.056213,313.032654 666.697815,312.997772 
	C677.381775,312.770660 677.383545,312.799622 677.288757,301.840973 
	C677.283264,301.199921 677.233521,300.559265 677.204712,299.926849 
	C674.523315,298.486633 671.817627,299.318695 669.218750,299.190277 
	C663.930847,298.929047 661.954834,297.102509 661.774109,291.951569 
	C661.710022,290.121826 661.669373,288.276123 661.832520,286.456909 
	C662.138794,283.041718 663.764709,281.068695 667.524170,280.836823 
	C676.801270,280.264709 679.232422,282.150482 679.129028,291.222656 
	C679.076904,295.803101 681.104736,297.610413 685.326477,297.675629 
	C687.157410,297.703918 688.989807,297.680389 690.820801,297.643188 
	C692.590698,297.607208 693.707336,296.704285 693.752625,294.915161 
	C694.003418,285.027069 695.085144,283.286469 685.003967,283.332092 
	C684.504211,283.334381 684.001831,283.347992 683.504822,283.306610 
	C675.554199,282.645538 679.832336,276.122955 678.403137,272.382660 
	C677.325500,269.562408 678.770691,267.120209 681.461487,265.836151 
	C682.401367,265.387634 683.741272,265.782043 684.898499,265.783325 
	C687.558411,265.786285 690.218323,265.784271 692.878235,265.784271 
	C689.887878,264.306152 686.892639,263.385620 683.874023,262.549286 
	C682.549194,262.182220 681.117981,262.031738 680.419312,263.605225 
	C678.528625,267.863037 674.758179,267.184692 671.369873,266.856995 
	C668.902771,266.618378 666.549194,266.258545 664.119202,267.145630 
	C664.382202,271.195374 663.646057,274.958862 663.150635,278.751099 
	C662.831665,281.192963 661.487183,282.073883 659.154053,282.297791 
	C655.310913,282.666595 650.144226,280.245636 647.968872,283.811371 
	C646.142700,286.804535 647.183899,291.548340 646.968201,295.517731 
	C646.960205,295.664978 647.085022,295.819427 647.495422,296.804321 
	C650.574829,296.804321 654.023376,296.845245 657.470581,296.793732 
	C661.570374,296.732452 663.432556,299.038116 662.980652,302.760193 
	C662.523804,306.522583 662.591614,310.426727 660.212341,314.230194 
	C657.129456,315.156982 653.894409,315.341888 650.817749,314.874695 
	C646.278992,314.185455 645.072327,316.012299 644.946350,320.221222 
	C644.696777,328.561401 644.510925,328.553406 652.697571,328.127045 
	C653.527222,328.083832 654.365540,328.020111 655.189453,328.089294 
	C658.291382,328.349731 659.415771,326.960236 659.971985,323.870392 
	C660.566223,320.569275 660.381409,317.245453 661.786377,313.729126 
M358.022644,346.514191 
	C363.933380,347.272491 369.713196,348.308319 375.834381,347.326416 
	C397.220093,343.895752 416.149261,334.192902 435.115509,324.627411 
	C442.154236,321.077515 446.131927,310.790466 443.267059,303.372955 
	C440.231781,295.514160 436.802490,287.651855 432.365204,280.525909 
	C425.352448,269.264008 415.765106,260.249603 404.585693,252.987671 
	C396.224579,247.556412 387.626526,242.571442 378.615204,238.288544 
	C367.669525,233.086273 356.540497,228.766998 344.686096,225.662735 
	C336.642761,223.556458 330.101776,222.375870 323.406006,227.767624 
	C322.381836,228.592316 321.130524,229.154099 319.941071,229.751495 
	C307.137390,236.182129 295.240356,244.155396 283.306732,251.979950 
	C271.761475,259.549866 259.889282,266.606079 248.494125,274.391815 
	C243.894760,277.534332 238.370361,280.106903 236.301437,285.720825 
	C229.783798,303.405945 226.722565,321.962463 223.515244,340.427826 
	C222.447845,346.572998 222.352966,353.213440 226.304932,358.755096 
	C237.894745,375.006897 255.052658,377.957886 271.270782,372.744019 
	C283.933044,368.673309 295.135864,361.945435 305.819031,354.224060 
	C307.232574,353.202362 308.660950,352.257904 310.363312,353.288605 
	C311.863342,354.196869 311.799194,355.834595 311.632202,357.335205 
	C310.350555,368.853668 309.209503,380.391998 307.658173,391.874603 
	C306.794739,398.265503 306.992279,398.999878 313.587921,400.709442 
	C316.937622,398.072418 316.845642,393.919586 317.869751,390.350311 
	C320.151123,382.399170 323.573090,374.719269 324.620117,366.486176 
	C325.366119,360.619965 326.442627,355.014954 329.631317,349.985016 
	C330.669189,348.347809 331.155151,346.725128 329.088806,345.818176 
	C321.760986,342.601807 316.715546,336.322693 310.218872,332.015076 
	C304.020691,327.905457 297.812988,325.809174 290.085266,328.833618 
	C283.468384,331.423340 278.414185,335.718018 273.352234,340.231293 
	C271.007507,342.321869 268.743591,344.798889 265.737762,341.895020 
	C262.672943,338.934143 264.439423,336.230499 267.012787,333.813904 
	C273.906403,327.340210 282.060455,322.732239 290.698975,319.339050 
	C295.474609,317.463196 301.086731,316.532135 306.123840,319.861755 
	C312.503326,324.078735 319.222839,327.855011 325.227722,332.548096 
	C334.751373,339.991272 345.414185,344.317963 358.022644,346.514191 
M464.321991,475.018921 
	C464.341919,467.564972 467.027985,460.129944 465.002228,452.398376 
	C463.815186,452.633606 463.150391,452.678284 462.549103,452.897247 
	C448.246216,458.105469 433.758392,462.769592 419.512024,468.170929 
	C403.227356,474.345032 386.687134,476.258698 370.017242,468.378815 
	C365.570251,466.276764 361.251984,463.200226 355.571045,462.653107 
	C357.603088,468.450043 359.609894,473.690460 361.278442,479.036469 
	C364.688507,489.962067 369.341766,501.136414 368.546936,512.373108 
	C367.777863,523.245789 371.320618,529.322571 380.389893,533.528870 
	C380.831238,533.733582 381.186951,534.125305 381.578156,534.435486 
	C385.502472,537.547485 390.385712,537.965210 394.380920,536.188232 
	C405.992889,531.023376 418.385284,529.837952 430.623352,527.713745 
	C436.917480,526.621338 441.960388,522.989014 446.717407,519.102844 
	C449.800171,516.584412 449.076813,512.430603 449.812286,508.924835 
	C450.865692,503.903809 452.789307,499.228424 457.486603,496.610901 
	C462.460571,493.839264 462.972595,489.084381 463.608002,484.353882 
	C463.982208,481.568176 463.908295,478.722290 464.321991,475.018921 
M454.963501,902.723938 
	C454.996460,933.731384 452.862946,964.740234 454.859283,995.838806 
	C456.239807,993.632080 457.354614,991.376221 457.605164,989.028076 
	C458.835266,977.501831 460.047577,965.966125 460.868500,954.405457 
	C462.172394,936.044434 462.129822,917.626343 463.353790,899.236694 
	C464.464081,882.554443 464.978485,865.786621 465.571106,849.057190 
	C466.318054,827.970581 466.743744,806.878113 467.705231,785.789612 
	C468.219177,774.516968 469.768585,763.263489 469.182526,751.930969 
	C468.994171,748.288330 468.940247,744.604309 469.252167,740.976013 
	C470.775879,723.252014 471.484650,705.502075 471.699432,687.715088 
	C471.766663,682.146240 472.311615,676.581726 472.442596,670.984070 
	C472.729462,658.724060 474.566711,646.490906 474.657745,634.238464 
	C474.742554,622.829712 474.628082,611.412476 474.792145,599.994995 
	C474.987701,586.388428 475.120178,572.819031 477.120026,559.284485 
	C477.535095,556.475281 480.008301,552.482666 476.744293,550.010803 
	C473.662506,547.676880 470.620361,545.266724 467.869324,542.697388 
	C465.136261,552.559143 465.212341,562.414795 464.342834,572.143860 
	C463.412598,582.552734 462.160675,593.003906 463.310181,603.504578 
	C464.813416,617.236145 464.854675,631.118469 464.641083,644.811096 
	C464.471344,655.690918 464.166351,666.686584 464.194397,677.567993 
	C464.256073,701.498840 461.877686,725.298340 461.454468,749.192139 
	C461.181183,764.620605 459.847137,780.027283 459.253113,795.453918 
	C458.616028,811.998413 458.457367,828.561646 457.782318,845.104126 
	C457.010834,864.008362 455.900391,882.898804 454.963501,902.723938 
M503.738403,123.622124 
	C504.763855,111.952209 505.789307,100.282288 506.873505,87.943848 
	C502.969238,87.943848 499.653381,88.151909 496.375336,87.888672 
	C492.674988,87.591530 491.158630,89.076836 491.178772,92.707733 
	C491.211914,98.695808 491.903107,104.680061 491.976898,110.613731 
	C492.147675,124.348137 493.330597,138.069016 492.454498,151.834335 
	C491.799957,162.118164 491.317902,172.419952 490.976929,182.731491 
	C490.362427,201.315186 488.363220,219.835739 487.938812,238.449326 
	C487.723114,247.907806 486.968384,257.367004 486.096069,266.792480 
	C485.589508,272.266296 485.495270,277.679749 485.874695,283.209686 
	C489.946320,284.625031 491.351593,283.624268 492.142395,279.198578 
	C493.059143,274.068359 492.901123,268.969452 493.376251,263.875183 
	C494.608246,250.665588 495.989319,237.454697 496.653595,224.211334 
	C497.441406,208.505142 499.152405,192.889038 500.495483,177.239700 
	C502.000183,159.706451 503.276733,142.170395 503.738403,123.622124 
M222.347946,607.327026 
	C223.603668,609.680237 222.590530,612.955322 225.242310,615.015259 
	C227.226959,612.478638 227.042664,609.797302 227.057861,607.145508 
	C227.077347,603.743408 227.135757,599.539246 231.101334,599.049133 
	C234.788651,598.593445 234.615997,603.064636 235.894028,605.591553 
	C237.238220,608.249268 236.144577,611.782837 238.637787,614.066223 
	C240.028580,613.252930 240.064026,612.089905 239.837524,611.232544 
	C237.550903,602.576904 237.867493,593.474365 235.151703,584.878296 
	C233.702835,580.292419 230.968445,579.321045 226.747818,580.761475 
	C225.027954,581.348328 223.250687,581.953979 221.460617,582.112915 
	C216.305573,582.570557 211.619553,578.951965 211.474075,573.856079 
	C211.357025,569.755615 211.259766,565.603577 212.071320,561.461487 
	C214.849396,547.282593 217.836578,533.174194 222.680969,519.515930 
	C223.255798,517.895264 224.278702,516.057312 223.162033,514.225342 
	C220.168945,509.315033 216.660446,504.825867 212.536346,500.759125 
	C210.171890,502.707733 209.651550,505.128326 209.500397,507.332611 
	C208.838882,516.980835 207.061951,526.544067 204.780930,535.793091 
	C201.364777,549.644775 202.038742,562.971924 205.177063,576.585388 
	C207.782486,587.887085 211.176514,599.104492 210.561737,610.933777 
	C210.523651,611.666443 210.502609,612.617310 211.737656,613.168701 
	C213.577347,611.429321 213.946671,608.917542 214.771118,606.647278 
	C215.467285,604.730225 216.243439,602.546936 218.526108,602.491272 
	C220.865372,602.434204 221.784424,604.452759 222.347946,607.327026 
M245.770584,869.370483 
	C245.511520,847.043823 245.974686,824.727722 247.011688,802.402161 
	C245.806824,809.061951 245.788727,815.788757 245.045181,822.434509 
	C243.290329,838.119324 242.020477,853.798828 242.319214,869.611145 
	C242.443695,876.200073 241.547760,882.805481 241.181381,889.407043 
	C240.474228,902.149292 237.839050,914.750000 238.179337,927.558960 
	C238.572006,942.339233 236.087128,956.951355 235.854141,971.701355 
	C235.754028,978.038818 236.919662,980.301392 243.004608,979.985535 
	C249.535477,979.646545 255.774643,981.874878 262.202393,981.718628 
	C270.034454,981.528198 277.585724,983.914673 285.453583,983.699219 
	C289.038422,983.601074 292.436035,982.105896 296.220703,983.095825 
	C304.378510,985.229431 312.585663,987.008057 320.198425,990.899841 
	C323.066437,992.365906 326.351562,993.911499 329.965576,992.033203 
	C320.832916,979.820435 308.601898,973.729553 294.102661,972.977661 
	C286.280640,972.572021 278.688934,971.216736 271.012512,970.148743 
	C262.481049,968.961792 253.973724,967.602539 245.446411,966.384705 
	C241.146149,965.770569 239.695587,963.310791 239.810257,959.111389 
	C240.199631,944.851257 240.059250,930.558167 242.575958,916.446350 
	C245.297943,901.183411 244.080185,885.661194 245.770584,869.370483 
M158.091431,930.676025 
	C156.555847,943.005981 157.026062,955.499817 154.567703,967.782959 
	C152.799591,976.617249 151.986588,976.753967 142.638138,975.717712 
	C134.100754,974.771301 125.768387,972.362488 117.214592,971.028076 
	C101.759064,968.616760 87.442299,970.539795 73.904839,977.979309 
	C71.247894,979.439392 67.320465,979.290833 65.810043,982.829651 
	C67.903511,984.841125 70.262634,984.737854 72.580879,984.738403 
	C82.745522,984.740967 92.910454,984.680420 103.074677,984.742310 
	C108.280327,984.773987 113.626846,984.330627 118.227844,982.331543 
	C128.669586,977.794495 139.325851,978.894714 150.046844,979.638062 
	C155.032043,979.983643 157.542801,978.515015 157.501770,973.353149 
	C157.406113,961.317322 159.713608,949.561096 160.872375,937.674988 
	C161.806702,928.091064 162.177170,918.433044 163.546509,908.915588 
	C165.197861,897.438293 166.069611,885.883118 166.551147,874.367004 
	C167.087799,861.532593 168.429169,848.876587 170.645782,836.265381 
	C171.644440,830.583801 172.543442,824.884705 173.487656,819.193542 
	C170.085739,821.277527 169.558990,824.314270 169.218887,827.455017 
	C168.540619,833.718933 167.947632,840.055725 166.803070,846.190308 
	C163.382401,864.524292 162.263306,883.025269 161.122604,901.568420 
	C160.542953,910.990906 159.176056,920.364929 158.091431,930.676025 
M503.589233,241.987976 
	C503.007111,249.248413 502.425018,256.508850 501.842926,263.769287 
	C504.741394,256.788330 505.922638,249.474167 507.547638,242.247940 
	C511.766388,223.487289 514.578857,204.490768 517.573242,185.531952 
	C520.689697,165.799576 521.107239,145.839325 520.690002,125.910660 
	C520.528564,118.203812 518.833679,110.552933 514.128540,103.760056 
	C511.429199,149.628159 506.705048,195.280731 503.589233,241.987976 
M457.564056,445.086548 
	C460.997253,443.837219 464.402222,442.502075 467.871185,441.361511 
	C471.695038,440.104248 473.421936,438.030914 471.309814,434.034180 
	C470.525116,432.549225 469.949799,430.967255 470.288391,429.241882 
	C470.865967,426.298950 471.115906,422.918579 475.317230,423.083923 
	C479.193085,423.236481 478.901764,426.338104 478.990570,428.979370 
	C479.100098,432.235382 480.093231,434.967468 482.785645,437.161682 
	C486.498749,430.853577 483.910370,419.657501 477.922943,414.403351 
	C472.537048,409.677032 467.827576,410.973541 465.628998,417.919281 
	C464.881226,420.281708 464.214783,422.774506 464.143951,425.225983 
	C463.967041,431.347137 460.139435,434.899414 455.624176,437.912781 
	C449.774811,441.816620 443.429810,444.360229 436.311432,445.275024 
	C428.122131,446.327454 419.788940,447.331055 411.955963,449.764679 
	C405.032623,451.915680 398.692230,455.855286 391.033783,455.333405 
	C388.080231,455.132111 388.193817,457.683838 387.962067,459.553497 
	C387.729492,461.429749 387.989319,463.498718 390.470551,463.625153 
	C393.573334,463.783295 396.504852,464.655518 399.812103,464.203583 
	C407.479553,463.155762 414.397156,460.015533 421.610718,457.688751 
	C433.450409,453.869843 444.813904,448.688263 457.564056,445.086548 
M422.873566,537.405212 
	C419.473389,538.904724 415.721741,538.135071 412.153168,539.372986 
	C405.316376,541.744812 398.559601,544.704956 391.173126,545.091309 
	C388.112152,545.251404 386.395172,546.840637 386.419525,549.713257 
	C386.446381,552.880188 389.263275,552.314758 391.294128,552.634705 
	C400.635284,554.106079 409.277771,550.525513 417.343323,547.233521 
	C430.964050,541.674255 445.260925,538.585144 459.088318,533.885254 
	C463.984314,532.221130 466.427460,530.833862 463.929718,525.432251 
	C463.225037,523.908203 463.634003,521.816589 463.715607,519.993530 
	C463.845703,517.087158 464.161743,513.877686 467.912140,513.747314 
	C471.848145,513.610535 472.087280,516.743958 472.086975,519.749023 
	C472.086670,522.863464 472.013092,526.031433 475.157013,527.927429 
	C476.862885,526.893616 477.517426,525.383545 477.492340,523.960876 
	C477.366669,516.839294 477.154968,509.910156 470.022888,505.282959 
	C464.929291,501.978302 461.259735,502.633087 459.223297,508.562531 
	C458.364838,511.062134 457.519073,513.679382 457.365784,516.284302 
	C457.047668,521.690247 453.780487,524.962097 449.965576,528.084534 
	C442.324310,534.338806 433.456268,536.971436 422.873566,537.405212 
M483.278442,312.303680 
	C482.919098,314.589935 482.220795,316.881287 482.255249,319.161591 
	C482.488800,334.627808 480.137268,349.948822 479.748383,365.394745 
	C479.583740,371.933289 479.696777,378.683044 478.212769,385.141266 
	C477.035675,390.264160 477.481293,395.389435 477.265503,400.509033 
	C477.147156,403.316864 478.881836,404.986725 482.046844,405.571045 
	C484.305695,396.542999 483.921539,387.397705 485.258911,378.473114 
	C486.819153,368.060883 486.731781,357.380585 487.624023,346.825897 
	C489.047882,329.982269 489.949646,313.094971 491.231079,296.238220 
	C491.420685,293.744171 491.082703,292.413300 488.343262,292.280701 
	C485.958557,292.165283 484.785156,292.855774 484.408966,295.495056 
	C483.657379,300.768005 482.993408,306.017670 483.278442,312.303680 
M638.929993,280.464691 
	C645.690063,281.112335 645.690002,281.112335 645.812927,273.954346 
	C645.944641,266.290375 647.088257,265.077301 654.329163,264.921387 
	C661.500854,264.766937 661.500854,264.766937 662.343872,256.695679 
	C657.936707,255.412766 653.441467,254.104218 648.886841,252.778381 
	C647.836609,255.858337 648.269226,258.538696 648.229553,261.172668 
	C648.173462,264.896698 646.533691,266.647278 642.662842,266.436127 
	C639.066833,266.239990 635.451721,266.394257 631.750305,266.394257 
	C631.548889,267.916107 631.350281,268.720123 631.349854,269.524231 
	C631.342712,281.689819 630.682617,281.645233 620.326965,281.094788 
	C616.513062,280.892090 614.688171,282.284912 615.094971,286.260010 
	C615.263794,287.909424 615.214111,289.594330 615.118469,291.254700 
	C614.961609,293.978333 615.932800,295.371246 618.815186,296.095856 
	C627.428040,298.260895 629.661499,296.692474 629.731750,287.778595 
	C629.792664,280.053589 630.367432,279.534698 638.929993,280.464691 
M227.748184,530.175720 
	C227.342575,533.176514 224.006348,536.733643 228.558334,538.914795 
	C232.861679,540.976746 236.134689,544.139587 239.735184,547.060791 
	C242.463943,549.274719 244.695511,552.107361 248.077591,554.492126 
	C250.273651,544.766479 251.657486,535.536438 252.559235,526.237122 
	C252.803268,523.720642 251.521835,522.388611 248.702621,522.224976 
	C244.917343,522.005310 241.099854,521.534302 237.410187,520.679321 
	C232.849426,519.622498 229.969009,520.666321 229.100983,525.596924 
	C228.872696,526.893555 228.331116,528.134949 227.748184,530.175720 
M472.004303,488.130920 
	C470.631195,495.796295 471.906006,497.704163 480.473389,500.618164 
	C480.986053,491.168976 480.973389,481.697266 482.165833,472.379791 
	C483.189392,464.381531 484.315369,456.996429 474.710693,452.725769 
	C473.826874,464.234924 472.944122,475.730011 472.004303,488.130920 
M257.434692,440.016205 
	C253.929077,440.496704 251.658905,442.958801 249.148590,445.089935 
	C244.527252,449.013092 238.434402,450.806030 233.444153,455.719635 
	C241.039963,459.416229 248.168564,462.885437 256.191772,466.790070 
	C257.158600,457.312836 258.024597,448.861603 258.846375,440.406036 
	C258.858398,440.282135 258.320160,440.104767 257.434692,440.016205 
M285.706238,377.291382 
	C283.426483,378.847473 280.355011,378.889221 278.090515,381.038147 
	C281.515015,383.253876 284.793854,385.149719 287.822388,387.384674 
	C293.154755,391.319763 298.004333,389.532135 299.805084,382.991974 
	C300.992676,378.678680 300.525482,374.286255 301.593750,369.040314 
	C295.936371,371.966492 291.145569,374.444458 285.706238,377.291382 
M253.863327,482.527618 
	C255.344482,483.472809 256.991425,484.510101 257.739136,481.919098 
	C258.397308,479.638397 257.791809,477.771423 255.338150,476.609589 
	C246.780609,472.557617 238.331482,468.274536 229.742340,464.292450 
	C226.099533,462.603577 222.218597,462.602783 217.094238,464.349884 
	C229.870041,470.611725 241.570496,476.346497 253.863327,482.527618 
M642.219666,343.555084 
	C644.549133,339.749786 643.511536,335.576294 643.437683,331.536346 
	C643.408142,329.923279 641.950378,329.620575 640.537964,329.395996 
	C629.639648,327.663513 628.060181,328.940552 627.823242,339.855286 
	C627.806091,340.649658 627.952209,341.447571 628.020996,342.227142 
	C632.516113,344.129700 637.014160,343.768616 642.219666,343.555084 
M727.290955,305.667908 
	C727.520935,308.080963 726.698547,310.600525 728.009644,313.065308 
	C732.983459,313.539276 737.946899,314.012299 743.030273,314.496704 
	C743.030273,312.725769 743.025574,311.585999 743.031006,310.446259 
	C743.091553,297.662170 743.243103,300.965759 732.599854,299.798828 
	C729.087219,299.413666 726.749084,300.685059 727.290955,305.667908 
M612.989319,319.493866 
	C613.699036,322.081390 610.962463,325.981689 614.162720,327.169556 
	C617.917542,328.563293 623.225586,329.228210 626.146484,326.746613 
	C629.418030,323.967102 627.640442,318.785675 627.600952,314.647278 
	C624.443237,313.873779 621.669861,313.542542 618.832520,313.353027 
	C614.853394,313.087280 612.776978,314.467926 612.989319,319.493866 
M715.110535,284.317200 
	C711.778870,285.907440 710.107239,291.026703 711.444580,295.770874 
	C712.321655,298.882233 714.977966,297.486664 716.905579,297.718567 
	C718.707825,297.935394 720.569275,297.620911 722.385376,297.772003 
	C725.306885,298.015045 726.372803,296.737793 726.877319,293.885315 
	C728.358276,285.511505 727.299622,284.061798 718.965881,284.214020 
	C717.968201,284.232208 716.970703,284.257904 715.110535,284.317200 
M705.362549,267.505676 
	C703.381409,267.505676 701.400146,267.488800 699.419250,267.511414 
	C698.015076,267.527435 696.946655,267.858521 696.413452,269.483795 
	C693.674316,277.834045 696.725464,282.100952 705.470398,281.901611 
	C707.202637,281.862152 709.213989,282.487305 710.370056,280.437439 
	C712.784607,276.155914 710.605652,269.777557 705.362549,267.505676 
M599.234680,271.174500 
	C599.736694,276.722961 602.949463,278.818298 609.614380,278.772614 
	C615.379822,278.733063 613.350037,274.651886 613.745239,271.759460 
	C613.811768,271.272736 613.759888,270.769043 613.753235,270.273285 
	C613.676514,264.521057 613.200256,264.380157 605.280273,264.186157 
	C600.707947,264.074158 598.215210,265.277557 599.234680,271.174500 
M630.039917,305.466095 
	C630.186951,311.907501 632.435425,313.308502 641.741150,312.757111 
	C645.088745,312.558777 645.862122,308.249817 644.127991,299.287903 
	C641.889954,298.922089 639.633606,298.443085 637.352112,298.201263 
	C630.812012,297.508057 630.203003,298.073334 630.039917,305.466095 
M679.313660,315.619995 
	C677.141968,319.670441 678.375549,323.819305 678.458679,327.804779 
	C681.192566,328.843353 683.510315,328.246887 685.791138,328.338776 
	C692.773682,328.620087 692.517334,328.621155 692.874268,321.475525 
	C693.118774,316.578827 691.754028,314.262299 686.517517,315.104034 
	C684.426880,315.440063 682.247437,315.224335 679.313660,315.619995 
M630.470398,252.809036 
	C626.995972,249.885056 622.678284,249.954727 618.539978,249.647217 
	C616.656799,249.507278 616.290588,251.219574 616.206970,252.850266 
	C616.038696,256.129211 616.505676,259.417938 615.594666,262.725861 
	C617.312561,262.974976 618.613831,263.148041 619.909912,263.354095 
	C628.954834,264.792175 628.948303,264.793640 629.969971,256.044128 
	C630.066162,255.220337 630.303467,254.413025 630.470398,252.809036 
M527.929260,97.124115 
	C528.412231,100.439423 525.039124,102.556305 525.144714,105.930061 
	C526.661194,102.417297 529.602417,102.088776 532.671143,102.157318 
	C534.984924,102.209015 537.293945,102.447021 539.607056,102.565224 
	C540.788452,102.625603 541.866577,102.529823 542.511597,101.221291 
	C544.918579,96.338486 542.039185,91.455345 536.619263,91.314491 
	C535.626526,91.288689 534.544983,91.533051 533.655090,91.221817 
	C528.610046,89.457344 527.568726,92.033730 527.929260,97.124115 
M675.630859,336.039093 
	C675.769592,334.104492 675.908264,332.169922 676.052307,330.160492 
	C672.289734,329.944855 668.682129,330.768158 665.127869,329.737732 
	C662.694885,329.032349 660.943909,330.088165 661.206604,332.605164 
	C661.589844,336.275635 659.020813,340.514008 663.063782,343.541016 
	C663.281860,343.704315 663.759521,343.709290 664.027527,343.589447 
	C668.117249,341.760742 673.190918,341.585632 675.630859,336.039093 
M611.252197,345.325684 
	C613.637634,349.396759 616.241760,353.294373 621.491394,353.787140 
	C623.510071,353.976654 626.347595,354.471619 626.388428,351.251373 
	C626.421448,348.648895 626.846802,345.238190 622.500061,345.141937 
	C618.774597,345.059448 615.050659,344.908661 611.252197,345.325684 
M536.597351,269.196075 
	C539.976379,268.543243 543.342041,267.802948 546.741150,267.280762 
	C548.094177,267.072906 549.567566,267.265594 549.463928,265.339813 
	C549.372803,263.647583 548.022583,263.284668 546.626404,263.240417 
	C544.320435,263.167267 542.012207,263.157349 539.704834,263.139496 
	C535.408081,263.106201 533.911804,264.902405 536.597351,269.196075 
M492.392029,421.664459 
	C492.621124,423.630890 492.789520,425.606903 493.098419,427.560730 
	C493.347656,429.136963 494.343506,429.939484 495.928162,429.367584 
	C498.056427,428.599518 499.712646,427.256958 499.925018,424.805969 
	C500.082367,422.990387 500.306427,420.813324 498.457733,419.894745 
	C496.458527,418.901367 494.038879,418.162354 492.392029,421.664459 
M485.717438,519.677551 
	C488.377289,521.472595 492.047821,519.683472 493.110809,516.101379 
	C493.572968,514.543945 493.487335,512.955139 492.208832,512.001892 
	C490.494843,510.723907 488.360779,511.049957 486.486633,511.674683 
	C484.870972,512.213196 485.287659,513.741089 485.444244,515.083862 
	C485.596130,516.386475 485.532593,517.714294 485.717438,519.677551 
M322.970520,404.101959 
	C321.560425,405.335724 318.832703,406.442871 320.329681,408.587067 
	C321.981964,410.953766 324.814178,412.228271 328.427917,411.288513 
	C327.244965,408.320282 326.661774,405.381195 322.970520,404.101959 
M644.034973,349.452942 
	C649.056946,352.639313 652.023987,347.830414 655.946716,346.750854 
	C653.582581,346.074066 651.301697,345.739288 649.027649,345.363068 
	C646.246948,344.903046 644.519775,345.913300 644.034973,349.452942 
M612.539917,297.732910 
	C609.732605,299.428406 609.327209,306.381104 612.056458,310.309479 
	C613.095337,306.171661 612.658630,302.216919 612.539917,297.732910 
M352.268158,491.617554 
	C353.379425,493.117798 353.120392,496.643646 356.463257,494.932251 
	C358.720306,493.776672 357.178314,491.692200 356.911224,489.999207 
	C356.696045,488.635498 356.371063,487.162933 354.522217,487.545929 
	C352.772949,487.908264 351.357483,488.775940 352.268158,491.617554 
M745.098755,297.920166 
	C746.549133,298.161285 748.583496,298.753143 748.512695,296.546936 
	C748.434509,294.108124 748.089417,291.317657 744.802124,289.950867 
	C744.199341,292.710724 744.186157,295.112244 745.098755,297.920166 
M330.016693,476.860291 
	C327.744659,479.533600 327.442139,482.231049 329.548035,485.359985 
	C333.356720,481.262543 333.507843,479.526825 330.016693,476.860291 
M487.061584,533.390137 
	C489.683502,531.750977 492.305420,530.111816 494.927338,528.472656 
	C494.665009,528.090881 494.402679,527.709106 494.140350,527.327332 
	C491.428253,531.224854 485.171936,528.878052 482.838257,533.848755 
	C484.408600,534.940125 485.368591,533.869751 487.061584,533.390137 
M322.479828,469.549774 
	C325.214081,467.867859 325.075592,465.349640 324.737457,462.635925 
	C320.398132,463.642334 319.733368,465.347382 322.479828,469.549774 
M313.515900,410.872223 
	C312.153412,410.089722 310.854919,408.503632 309.216339,410.340210 
	C308.514465,411.126923 308.227173,412.101593 309.087585,413.010071 
	C310.132019,414.112885 311.396210,415.267548 312.925110,414.836212 
	C314.667786,414.344604 315.085815,412.940613 313.515900,410.872223 
M610.554382,337.257172 
	C610.425110,334.697662 611.981384,331.985657 610.050415,329.378784 
	C607.860168,332.025085 607.991455,337.053406 610.101501,338.768097 
	C610.215210,338.463470 610.328918,338.158844 610.554382,337.257172 
M639.998596,248.311615 
	C637.727234,247.085312 635.455872,245.859009 633.004944,244.535767 
	C632.133667,246.494705 631.705872,248.261414 634.194946,248.343613 
	C636.252991,248.411560 638.302490,249.588226 639.998596,248.311615 
M739.968872,330.772705 
	C738.547729,330.195038 737.088562,330.286224 736.710938,331.887634 
	C736.257996,333.808258 737.401978,334.973724 739.339294,335.241943 
	C740.893494,334.166412 741.041382,332.801514 739.968872,330.772705 
M352.417206,509.746643 
	C352.275940,507.385376 352.315796,504.929688 348.484863,503.195526 
	C349.587311,506.359650 348.614807,509.195557 352.417206,509.746643 
M328.059113,450.544373 
	C326.139282,448.845703 325.116211,449.906952 324.518921,451.787659 
	C324.108673,453.079559 324.687836,454.306610 325.990570,454.398651 
	C328.241455,454.557709 328.595093,452.928284 328.059113,450.544373 
M320.391968,494.912598 
	C320.648315,495.788940 320.417969,496.903168 321.851837,497.466003 
	C322.901093,494.703674 323.425903,492.187683 320.940826,489.642700 
	C319.246063,491.488007 320.415588,492.918823 320.391968,494.912598 
M330.322296,466.361115 
	C330.069244,467.767975 329.492432,469.261017 331.337921,470.176208 
	C333.295166,469.350952 334.228790,467.933319 333.307495,465.956512 
	C332.731323,464.720245 331.564484,464.595276 330.322296,466.361115 
M303.698761,427.990875 
	C305.109100,428.918823 306.452209,430.068695 308.922302,429.609924 
	C306.858917,426.981293 304.647736,425.693634 301.967926,424.917206 
	C301.515106,426.525818 302.756409,426.824799 303.698761,427.990875 
z"/>
<path fill="#000000" opacity="1.000000" stroke="none" 
	d="
M542.014404,135.010330 
	C541.909546,130.882980 541.719971,126.743141 541.692627,122.602226 
	C541.668030,118.879906 543.438293,117.022232 547.329773,117.686501 
	C547.654419,117.741905 547.991150,117.734795 548.322571,117.740013 
	C556.843811,117.874123 556.903076,117.879295 557.718140,109.196304 
	C558.071045,105.436447 559.637817,103.281517 563.697144,103.666245 
	C564.026245,103.697433 564.360596,103.678375 564.692383,103.675385 
	C575.322266,103.579460 577.013184,105.623573 574.837646,116.153877 
	C574.310974,118.703232 572.406860,119.433136 569.972229,119.399727 
	C566.360596,119.350143 561.992920,117.925629 559.360107,120.172691 
	C556.737305,122.411255 558.811829,126.729454 558.598267,130.120880 
	C558.507935,131.555984 557.740295,132.948425 557.123108,134.690460 
	C556.965759,135.020660 556.998413,134.996521 556.547424,135.042191 
	C551.388855,135.048721 546.681335,135.009583 541.973755,134.970428 
	C541.973755,134.970428 542.000366,134.997360 542.014404,135.010330 
z"/>
<path fill="#000000" opacity="1.000000" stroke="none" 
	d="
M539.090332,182.869125 
	C542.654968,181.768127 546.161804,181.912521 549.643494,181.970459 
	C552.512756,182.018204 553.742432,180.919785 553.961792,177.909058 
	C554.997375,163.693817 554.761414,167.136749 567.848328,166.554932 
	C569.045410,166.501694 570.138123,166.702667 570.835266,167.899872 
	C571.888855,169.709091 571.303650,180.916931 570.068237,182.549316 
	C568.793335,184.233765 567.000916,184.276932 565.137756,184.333755 
	C562.173279,184.424194 559.172668,183.730698 556.101746,184.689972 
	C555.896973,185.275375 555.533020,185.878342 555.492981,186.502090 
	C555.249084,190.299942 555.078857,194.102524 554.874207,198.095123 
	C558.691284,199.493042 562.495972,198.731064 566.234009,198.728210 
	C567.796692,198.727005 568.616760,197.720413 568.773254,196.191681 
	C568.840820,195.531113 568.878357,194.866592 568.905334,194.202881 
	C569.392395,182.243057 571.586853,180.547119 583.206177,183.144104 
	C585.847534,183.734482 587.356750,185.233017 586.964966,188.068771 
	C585.425415,199.211594 585.010803,199.154358 596.915161,199.769775 
	C598.076294,199.829803 599.233154,199.973129 600.939819,200.240082 
	C601.659180,200.576172 601.819946,200.759369 602.031128,201.405136 
	C602.110657,203.669754 602.318970,205.502716 602.116577,207.289154 
	C600.884888,218.163452 600.848816,218.222626 589.692383,217.349136 
	C586.519287,217.100708 585.165833,218.083267 585.154358,221.408447 
	C585.143677,224.505188 585.739441,227.709824 584.369202,230.710693 
	C584.369202,230.710693 584.040344,231.040222 583.506714,231.327179 
	C580.218567,232.812347 577.374756,231.898209 574.584167,231.893097 
	C568.251831,231.881500 567.850342,231.381393 567.796509,225.036697 
	C567.727722,216.932816 567.727722,216.932800 559.622742,216.194626 
	C553.893677,215.672821 553.282043,216.214142 553.188599,221.888016 
	C553.062439,229.553848 551.568237,231.053131 544.142822,230.964172 
	C536.976013,230.878311 535.737366,229.655457 535.722473,222.521164 
	C535.717957,220.360016 535.839233,218.198624 535.902893,216.037323 
	C536.195496,215.744492 536.488098,215.451660 537.338684,214.917847 
	C541.373718,214.678955 544.851196,214.710846 548.327759,214.671143 
	C550.207458,214.649689 551.919861,214.403168 552.639343,212.149155 
	C555.194458,204.144318 552.442749,200.208740 544.083618,200.066559 
	C543.585632,200.058090 543.087158,200.082748 542.588928,200.080612 
	C539.283997,200.066437 537.332642,197.971405 537.555420,195.116089 
	C537.862793,191.177307 537.209351,187.112869 538.637207,183.275436 
	C538.637207,183.275436 538.940430,183.005844 539.090332,182.869125 
M570.291748,203.980057 
	C570.291748,207.391388 570.291748,210.802704 570.291748,214.405609 
	C573.669861,215.015930 576.974487,216.063385 580.497986,215.742004 
	C581.860901,215.617691 583.023560,215.465927 583.635132,213.904022 
	C587.228455,204.725861 583.987732,200.028671 574.225586,200.295471 
	C572.207458,200.350647 570.594055,200.750031 570.291748,203.980057 
z"/>
<path fill="#000000" opacity="1.000000" stroke="none" 
	d="
M572.971741,150.973221 
	C576.643616,150.772675 580.132812,150.783401 583.621887,150.815414 
	C584.949341,150.827591 586.330566,150.764343 587.444397,151.640656 
	C588.733521,152.654846 589.350037,162.801102 588.229797,165.204971 
	C586.794434,168.284821 584.210571,168.598923 581.119141,168.335999 
	C570.661926,167.446564 570.022156,166.757706 571.287659,156.271561 
	C571.426819,155.118332 571.675110,153.978256 571.931396,152.419250 
	C572.256348,151.735245 572.522705,151.464096 572.971741,150.973221 
z"/>
<path fill="#000000" opacity="1.000000" stroke="none" 
	d="
M313.238525,244.351852 
	C314.383148,243.131882 315.279510,242.155304 316.057892,241.092331 
	C320.627472,234.852036 325.662537,233.607712 332.395691,237.316330 
	C342.546448,242.907379 349.620667,251.273880 353.661743,262.068451 
	C355.456482,266.862640 357.142975,271.728821 357.956787,276.858734 
	C358.544983,280.566376 358.447083,284.129364 357.272247,287.674896 
	C355.989502,291.546051 353.608337,292.518127 350.032227,290.363831 
	C341.127136,284.999298 333.754425,277.809052 326.776642,270.224976 
	C322.733826,265.830902 318.570190,261.494873 315.474762,256.316986 
	C314.438416,254.583389 313.097839,254.228821 311.266022,255.058289 
	C307.084503,256.951691 302.446838,256.281097 298.101379,257.307343 
	C294.742676,258.100555 292.229156,256.577118 291.710602,253.426559 
	C291.181946,250.214859 293.791595,248.702072 296.661865,248.374191 
	C302.248810,247.736008 308.022522,248.024841 313.238525,244.351852 
z"/>
<path fill="#000000" opacity="1.000000" stroke="none" 
	d="
M605.683960,136.805450 
	C606.060608,142.151337 606.404175,147.357864 604.098267,152.636246 
	C602.366516,153.047897 600.716797,153.108566 599.067383,153.101456 
	C588.861694,153.057495 585.892578,148.752045 589.144348,138.710022 
	C589.732422,136.894028 590.679993,135.254608 592.799988,135.161469 
	C597.044678,134.975006 601.401306,134.110184 605.683960,136.805450 
z"/>
<path fill="#000000" opacity="1.000000" stroke="none" 
	d="
M618.098328,200.556503 
	C612.981628,203.431320 607.907654,200.806381 602.411499,201.035980 
	C601.819946,200.759369 601.659180,200.576172 601.357666,200.279678 
	C601.324219,196.060944 601.394836,191.964066 601.530090,187.869308 
	C601.584167,186.232010 602.402466,184.884872 604.002747,184.530594 
	C608.077148,183.628540 612.199585,183.706879 616.253906,184.693924 
	C618.318665,185.196594 618.338013,187.042740 618.333008,188.705750 
	C618.321716,192.501526 618.231995,196.297058 618.098328,200.556503 
z"/>
<path fill="#000000" opacity="1.000000" stroke="none" 
	d="
M540.391357,166.127502 
	C537.828674,161.623917 539.579590,157.305542 540.383911,153.063568 
	C540.807434,150.830353 542.792603,149.674286 545.256226,149.736328 
	C548.535339,149.818924 551.816223,149.827621 555.560913,149.920685 
	C556.763611,154.091232 557.091003,158.196228 556.418884,162.386429 
	C555.775208,166.399445 553.828430,168.297501 549.621460,167.683563 
	C546.663635,167.251923 543.633179,167.302704 540.391357,166.127502 
z"/>
<path fill="#000000" opacity="1.000000" stroke="none" 
	d="
M593.614502,184.440186 
	C589.294922,184.561157 585.867065,184.580811 585.954651,178.959427 
	C586.084839,170.599274 587.478882,167.954132 593.098938,167.536850 
	C594.753967,167.413956 596.417603,167.184967 598.066956,167.253647 
	C601.353760,167.390533 603.404663,168.894974 603.303833,172.508789 
	C603.262146,174.004318 603.340942,175.502777 603.338440,176.999863 
	C603.325195,184.881607 601.865051,186.053497 593.614502,184.440186 
z"/>
<path fill="#000000" opacity="1.000000" stroke="none" 
	d="
M566.674683,230.359146 
	C568.857300,234.645325 568.201477,238.841415 567.806580,242.927338 
	C567.542297,245.661789 565.746277,247.180878 562.717529,247.374130 
	C559.508789,247.578873 556.481812,246.652435 553.354248,246.442474 
	C552.882385,246.410782 552.184448,246.283875 551.999634,245.964523 
	C549.580566,241.785034 550.804382,237.232849 551.014648,232.870010 
	C551.163330,229.786194 554.009705,229.141724 556.621399,229.144119 
	C559.890686,229.147095 563.272034,228.238480 566.674683,230.359146 
z"/>
</svg>